<svg width="26" height="26" viewBox="0 0 26 26" fill="none" xmlns="http://www.w3.org/2000/svg">
<path d="M11.0697 14.8333C12.5193 16.3039 14.2733 17.4393 16.2086 18.1597L18.8266 16.0764C18.9042 16.0229 18.9963 15.9943 19.0905 15.9943C19.1847 15.9943 19.2768 16.0229 19.3544 16.0764L24.2155 19.2083C24.4 19.3193 24.5563 19.4716 24.6718 19.6533C24.7874 19.835 24.8591 20.0411 24.8813 20.2553C24.9036 20.4695 24.8757 20.6859 24.7999 20.8875C24.7241 21.089 24.6025 21.2702 24.4447 21.4167L22.1669 23.6667C21.8407 23.989 21.4398 24.2255 20.9999 24.3552C20.56 24.4848 20.0949 24.5036 19.6461 24.4097C15.1684 23.4849 11.0413 21.3191 7.73633 18.1597C4.50472 14.9689 2.26847 10.9089 1.29883 6.47222C1.20304 6.03031 1.22304 5.57114 1.35687 5.13922C1.4907 4.7073 1.73384 4.31728 2.06272 4.00695L4.42383 1.72917C4.56994 1.57902 4.74813 1.46387 4.94504 1.39235C5.14196 1.32082 5.35251 1.29477 5.56092 1.31615C5.76933 1.33752 5.97021 1.40577 6.14851 1.51578C6.32681 1.62579 6.47791 1.77471 6.5905 1.95139L9.82661 6.75C9.88243 6.82535 9.91256 6.91665 9.91256 7.01042C9.91256 7.10419 9.88243 7.19548 9.82661 7.27084L7.69466 9.83334C8.43465 11.7298 9.58753 13.4378 11.0697 14.8333V14.8333Z" fill="white"/>
</svg>
